<svg width="51" height="50" viewBox="0 0 51 50" fill="none" xmlns="http://www.w3.org/2000/svg">
<g id="money-svgrepo-com 1" clip-path="url(#clip0_81_2010)">
<path id="Vector" fill-rule="evenodd" clip-rule="evenodd" d="M12.4584 39.5L0.833374 33.5V16.328L26.7084 3.5L38.3334 9.5V26.75L12.4584 39.5Z" fill="#24AE5F"/>
<path id="Vector_2" fill-rule="evenodd" clip-rule="evenodd" d="M0.833374 32.2771V33.7686L12.4299 39.7346L38.2409 27.0565V25.5651L12.4299 38.243L0.833374 32.2771ZM0.833374 29.667V31.1586L12.4299 37.1245L38.2409 24.4471V22.955L12.4299 35.633L0.833374 29.667ZM0.833374 24.4466V25.938L12.4299 31.904L38.2409 19.2265V17.7351L12.4299 30.4125L0.833374 24.4466ZM0.833374 27.0565V28.548L12.4299 34.514L38.2409 21.8361V20.3445L12.4299 33.023L0.833374 27.0565ZM0.833374 21.8365V23.328L12.4299 29.2941L38.2409 16.616V15.125L12.4299 27.8025L0.833374 21.8365ZM12.4589 22.5675L0.833374 16.542V18.0485L12.4589 24.0735L38.3349 11.2701V9.76355L12.4589 22.5675ZM0.833374 19.2265V20.7181L12.4589 26.684L38.3349 14.006V12.5145L12.4589 25.1925L0.833374 19.2265Z" fill="#1E9450"/>
<path id="Vector_3" fill-rule="evenodd" clip-rule="evenodd" d="M24.8999 45.942L13.3324 39.9755V25.3235L39.0799 12.646L50.8334 18.6495V33.1495L24.8999 45.942Z" fill="#24AE5F"/>
<path id="Vector_4" fill-rule="evenodd" clip-rule="evenodd" d="M13.3334 38.5425V40.034L24.9584 46L50.8334 33.322V31.8305L24.9584 44.5085L13.3334 38.5425ZM13.3334 35.9325V37.424L24.9584 43.39L50.8334 30.712V29.2205L24.9584 41.898L13.3334 35.9325ZM13.3334 30.712V32.2035L24.9584 38.1695L50.8334 25.4915V24L24.9584 36.678L13.3334 30.712ZM13.3334 33.322V34.8135L24.9584 40.78L50.8334 28.102V26.6105L24.9584 39.288L13.3334 33.322ZM13.3334 28.102V29.5935L24.9584 35.5595L50.8334 22.8815V21.39L24.9584 34.068L13.3334 28.102ZM24.9584 31.2855L13.3334 25.32V26.8115L24.9584 32.7775L50.8334 20.0995V18.608L24.9584 31.2855Z" fill="#1E9450"/>
<path id="Vector_5" opacity="0.1" d="M12.4299 22.5825L0.833374 16.625V33.797L12.4584 39.75L12.4299 22.5825ZM24.9299 31.3L13.3334 25.3425V39.9885L24.9584 45.9415L24.9299 31.3Z" fill="black"/>
<path id="Vector_6" fill-rule="evenodd" clip-rule="evenodd" d="M30.8314 25.3044L25.1499 28.0339L20.2989 25.4239L26.8679 22.2059C26.8679 22.2059 26.4119 20.8959 26.6909 20.6964C26.6859 20.7199 16.9979 25.5424 16.9979 25.5424L25.2894 29.6879L33.8134 25.4264C33.8134 25.4264 32.9789 25.4539 32.2394 25.4234C31.4884 25.3934 30.8314 25.3044 30.8314 25.3044ZM37.5544 23.5564L47.5834 18.7499L39.4339 14.3254L30.9179 18.5829C32.2089 18.5164 33.2664 19.0719 33.2664 19.0719L39.3294 16.1019L44.5534 18.7124L37.5584 22.0724L37.5544 23.5564Z" fill="#1E9450"/>
<path id="Vector_7" d="M32.9509 23.479C33.2889 23.4894 33.6261 23.4382 33.9459 23.328L32.1814 22.393L32.0314 22.432L31.8394 22.4935C31.5779 22.572 31.3099 22.6445 31.0344 22.71C30.7589 22.7755 30.4789 22.8165 30.1944 22.833C29.9099 22.8495 29.6259 22.8325 29.3434 22.7825C29.0473 22.7279 28.7617 22.6272 28.4969 22.484C28.2099 22.332 28.0104 22.169 27.8989 21.9955C27.7874 21.8215 27.7459 21.6485 27.7739 21.4755C27.8019 21.3025 27.8919 21.1325 28.0429 20.966C28.2115 20.7851 28.4053 20.6295 28.6184 20.504L27.9684 20.1595L28.4589 19.8995L29.1089 20.244C29.3896 20.1254 29.6796 20.0301 29.9759 19.959C30.2761 19.8865 30.5828 19.8438 30.8914 19.8315C31.2074 19.82 31.5238 19.843 31.8349 19.9C32.1613 19.9601 32.4783 20.063 32.7779 20.206L31.5974 20.8315C31.3535 20.7118 31.0869 20.6455 30.8154 20.637C30.5249 20.624 30.2854 20.6675 30.0969 20.7675L31.5914 21.5595L31.8459 21.4785L32.1254 21.393C32.6479 21.2355 33.1034 21.142 33.4909 21.112C33.8784 21.083 34.2154 21.088 34.5009 21.1275C34.7864 21.1675 35.0289 21.23 35.2284 21.3145C35.4279 21.4 35.5984 21.48 35.7389 21.5545C35.8629 21.62 35.9884 21.719 36.1159 21.8515C36.2434 21.984 36.3184 22.1395 36.3404 22.3185C36.3629 22.4975 36.3109 22.695 36.1859 22.9105C36.0604 23.126 35.8039 23.3515 35.4169 23.587L36.1344 23.9675L35.6439 24.2275L34.9264 23.847C34.2604 24.152 33.5814 24.306 32.8889 24.309C32.1964 24.3125 31.4904 24.1525 30.7704 23.8295L31.9424 23.2085C32.2513 23.3799 32.5976 23.4728 32.9509 23.479ZM34.6759 22.8645C34.7474 22.788 34.7924 22.709 34.8109 22.6275C34.829 22.5442 34.8159 22.4572 34.7739 22.383C34.7309 22.3015 34.6419 22.225 34.5064 22.1535C34.2927 22.0384 34.0512 21.9851 33.8089 21.9995C33.5634 22.0135 33.2319 22.083 32.8149 22.2085L34.4359 23.0675C34.5238 23.0098 34.6044 22.9416 34.6759 22.8645ZM29.3734 21.1955C29.3176 21.2485 29.2792 21.3172 29.2634 21.3925C29.2573 21.4284 29.2585 21.4652 29.2669 21.5007C29.2754 21.5362 29.2908 21.5696 29.3124 21.599C29.3579 21.6675 29.4399 21.733 29.5584 21.7955C29.7444 21.894 29.9459 21.9395 30.1634 21.9315C30.3809 21.9235 30.6539 21.865 30.9819 21.757L29.6054 21.028C29.5198 21.0714 29.4415 21.1279 29.3734 21.1955Z" fill="#1E9450"/>
<path id="Vector_8" fill-rule="evenodd" clip-rule="evenodd" d="M18.1249 16.3044L12.4434 19.0339L7.59237 16.4239L14.1614 13.2059C14.1614 13.2059 13.7049 11.8959 13.9844 11.6964C13.9794 11.7199 4.29137 16.5424 4.29137 16.5424L12.5829 20.6879L21.1069 16.4264C21.1069 16.4264 20.2724 16.4539 19.5329 16.4234C18.7819 16.3934 18.1249 16.3044 18.1249 16.3044ZM24.8479 14.5564L34.8769 9.74994L26.7274 5.32544L18.2114 9.58294C19.5024 9.51644 20.5599 10.0719 20.5599 10.0719L26.6229 7.10194L31.8469 9.71244L24.8524 13.0724L24.8479 14.5564Z" fill="#1E9450"/>
<path id="Vector_9" d="M20.2444 14.479C20.5825 14.4896 20.9197 14.4384 21.2394 14.328L19.4744 13.393L19.3244 13.432L19.1324 13.4935C18.8662 13.5734 18.5977 13.6456 18.3274 13.71C18.0519 13.7755 17.7719 13.8165 17.4874 13.833C17.2029 13.8495 16.9194 13.8325 16.6364 13.7825C16.3403 13.7279 16.0547 13.6272 15.7899 13.484C15.5029 13.332 15.3034 13.169 15.1919 12.9955C15.0804 12.8215 15.0389 12.6485 15.0669 12.4755C15.0954 12.3025 15.1849 12.133 15.3359 11.9665C15.5045 11.7856 15.6983 11.63 15.9114 11.5045L15.2614 11.16L15.7519 10.9L16.4019 11.2445C16.6826 11.1259 16.9726 11.0306 17.2689 10.9595C17.5691 10.887 17.8758 10.8443 18.1844 10.832C18.5004 10.8205 18.8168 10.8435 19.1279 10.9005C19.4543 10.9606 19.7713 11.0635 20.0709 11.2065L18.8904 11.832C18.6465 11.7123 18.3799 11.646 18.1084 11.6375C17.8179 11.6245 17.5784 11.668 17.3899 11.768L18.8844 12.56L19.1389 12.4785L19.4184 12.393C19.9409 12.2355 20.3964 12.142 20.7839 12.112C21.1714 12.0825 21.5084 12.088 21.7939 12.1275C22.0794 12.1675 22.3219 12.23 22.5214 12.315C22.7209 12.4005 22.8914 12.4805 23.0319 12.555C23.1559 12.6205 23.2814 12.7195 23.4089 12.852C23.5364 12.9845 23.6114 13.14 23.6334 13.319C23.6559 13.498 23.6039 13.6955 23.4789 13.911C23.3534 14.1265 23.0969 14.352 22.7099 14.5875L23.4274 14.968L22.9369 15.228L22.2194 14.8475C21.5534 15.1525 20.8744 15.3065 20.1819 15.3095C19.4894 15.313 18.7834 15.153 18.0634 14.83L19.2354 14.209C19.5504 14.3815 19.8869 14.4715 20.2444 14.479ZM21.9694 13.8645C22.0409 13.788 22.0859 13.709 22.1039 13.6275C22.122 13.5442 22.1089 13.4571 22.0669 13.383C22.0239 13.3015 21.9349 13.225 21.7994 13.153C21.5857 13.0379 21.3442 12.9846 21.1019 12.999L20.1079 13.2085L21.7289 14.0675C21.8179 14.009 21.8979 13.9415 21.9694 13.8645ZM16.6669 12.1955C16.6111 12.2485 16.5727 12.3172 16.5569 12.3925C16.5508 12.4284 16.552 12.4652 16.5604 12.5007C16.5689 12.5362 16.5843 12.5696 16.6059 12.599C16.6519 12.6675 16.7334 12.733 16.8519 12.7955C17.0379 12.894 17.2394 12.9395 17.4574 12.9315C17.6749 12.9235 17.9479 12.865 18.2759 12.757L16.8994 12.028C16.8136 12.0712 16.7351 12.1278 16.6669 12.1955Z" fill="#1E9450"/>
</g>
<defs>
<clipPath id="clip0_81_2010">
<rect width="50" height="50" fill="white" transform="translate(0.833374)"/>
</clipPath>
</defs>
</svg>
