<svg width="51" height="50" viewBox="0 0 51 50" fill="none" xmlns="http://www.w3.org/2000/svg">
<g id="efficiency-svgrepo-com 1">
<g id="XMLID_474_">
<path id="XMLID_475_" d="M45.8125 25C45.8125 23.4098 45.6294 21.8627 45.2839 20.3777L49.6508 16.83L44.6508 8.16969L39.3894 10.1798C37.1417 8.07234 34.4147 6.47062 31.3889 5.55547L30.5 0H20.5L19.6111 5.55562C16.5855 6.47078 13.8584 8.0725 11.6106 10.18L6.34937 8.16984L1.34937 16.8302L5.71624 20.3778C5.37062 21.8627 5.18749 23.4098 5.18749 25C5.18749 26.5902 5.37062 28.1373 5.71608 29.6223L1.34937 33.17L6.34937 41.8302L11.6106 39.82C13.8584 41.9275 16.5855 43.5292 19.6111 44.4444L20.5 50H30.5L31.3889 44.4442C34.4145 43.5291 37.1416 41.9273 39.3894 39.8198L44.6506 41.83L49.6506 33.1697L45.2837 29.622C45.6294 28.1373 45.8125 26.5902 45.8125 25Z" fill="#006DF0"/>
<path id="XMLID_476_" d="M25.5 0H20.5L19.6111 5.55562C16.5855 6.47078 13.8584 8.0725 11.6106 10.18L6.34937 8.16984L1.34937 16.8302L5.71624 20.3778C5.37062 21.8627 5.18749 23.4098 5.18749 25C5.18749 26.5902 5.37062 28.1373 5.71608 29.6223L1.34937 33.17L6.34937 41.8302L11.6106 39.82C13.8584 41.9275 16.5855 43.5292 19.6111 44.4444L20.5 50H25.5V0Z" fill="#0052B4"/>
<path id="XMLID_477_" d="M25.5 39.8438C33.698 39.8438 40.3438 33.198 40.3438 25C40.3438 16.802 33.698 10.1562 25.5 10.1562C17.302 10.1562 10.6562 16.802 10.6562 25C10.6562 33.198 17.302 39.8438 25.5 39.8438Z" fill="white"/>
<path id="XMLID_478_" d="M27.8438 14.8438H23.1562V27.3438H27.8438V14.8438Z" fill="#FFDA44"/>
<path id="XMLID_3_" d="M32.5312 22.6562H23.1562V27.3438H32.5312V22.6562Z" fill="#FF9811"/>
</g>
</g>
</svg>
