<svg width="51" height="50" viewBox="0 0 51 50" fill="none" xmlns="http://www.w3.org/2000/svg">
<g id="bullish-svgrepo-com 1">
<path id="Vector" d="M42.1667 21.875H46.3334V45.8333H42.1667V21.875ZM35.9167 29.1667H40.0834V45.8333H35.9167V29.1667ZM29.6667 23.9583H33.8334V45.8333H29.6667V23.9583ZM23.4167 30.2083H27.5834V45.8333H23.4167V30.2083ZM17.1667 33.3333H21.3334V45.8333H17.1667V33.3333ZM10.9167 31.25H15.0834V45.8333H10.9167V31.25ZM4.66669 35.4167H8.83335V45.8333H4.66669V35.4167Z" fill="#4CAF50"/>
<path id="Vector_2" d="M42.2709 9.47913L35.9167 15.8333L31.75 11.6666L21.3334 22.0833L16.125 16.875L5.29169 27.7083L8.20835 30.625L16.125 22.7083L21.3334 27.9166L31.75 17.5L35.9167 21.6666L45.1875 12.3958L42.2709 9.47913Z" fill="#388E3C"/>
<path id="Vector_3" d="M46.3333 8.33337H36.9583L46.3333 17.7084V8.33337Z" fill="#388E3C"/>
</g>
</svg>
