<svg width="51" height="50" viewBox="0 0 51 50" fill="none" xmlns="http://www.w3.org/2000/svg">
<g id="automation-svgrepo-com 1" clip-path="url(#clip0_81_1985)">
<g id="Vector">
<path d="M34.3825 2.37858C34.2626 2.37394 34.1818 2.37441 34.1593 2.4009C34.1244 2.44189 33.5969 4.05874 32.9986 5.97233C32.4002 7.88591 30.919 12.6187 29.695 16.508C28.471 20.3974 27.4968 23.6541 27.5298 23.7402C27.5818 23.8757 27.843 23.8964 29.4048 23.8964C30.8723 23.8964 31.2272 23.9356 31.3244 24.0527C31.4219 24.1701 31.1491 24.9096 29.8512 28.0482C28.9757 30.1656 28.1655 32.078 28.0655 32.3116C27.9656 32.5452 27.9443 32.7315 27.9986 32.7134C28.1704 32.6561 38.9584 20.3517 38.9584 20.2134C38.9584 20.1064 38.5206 20.0795 36.6593 20.0795C35.2203 20.0795 34.3538 20.0521 34.3155 19.9902C34.2819 19.9358 34.5915 19.28 35.0075 18.5393C35.4234 17.7986 36.4203 15.9992 37.2396 14.5438C40.7674 8.27714 42.4134 5.36455 42.4628 5.23572C42.5209 5.08449 40.9462 4.23748 39.5834 3.69554C38.1867 3.14015 35.2217 2.41105 34.3825 2.37858ZM28.445 4.81162L28.0878 4.85626C27.6743 4.92024 25.5278 5.50254 25.1191 5.65983L24.8289 5.77144L24.8736 7.93662L24.8959 10.1018L24.6057 10.258C24.4463 10.3382 24.0126 10.5795 23.6459 10.7938L22.9762 11.1732L21.1905 10.1241C20.2096 9.54524 19.3798 9.05272 19.3378 9.03037C19.2277 8.97182 18.0326 10.0469 17.2843 10.883L16.6369 11.5973L17.753 13.45L18.8691 15.3027L18.6236 15.7045C18.4888 15.9242 18.2292 16.3693 18.0655 16.6866L17.7753 17.267L15.6325 17.2223L13.4673 17.1777L13.2664 17.6688C13.0854 18.1429 12.6758 19.7581 12.5521 20.4589L12.4852 20.8161L14.3602 21.8429L16.2352 22.8697V24.008V25.1241L14.3602 26.1509L12.4852 27.1777L12.5521 27.5348C12.6535 28.109 13.0691 29.7087 13.2664 30.2804L13.445 30.8161L15.6102 30.7714L17.7753 30.7268L18.0655 31.3072C18.2292 31.6245 18.4888 32.0696 18.6236 32.2893L18.8691 32.6911L17.753 34.5438L16.6369 36.3964L17.4182 37.2447C18.1257 38.0188 19.1716 38.9857 19.2932 38.9857C19.3191 38.9857 20.1649 38.5095 21.1682 37.9143L22.9986 36.8205L23.6459 37.2223C24.0096 37.4348 24.4463 37.6779 24.6057 37.758L24.8959 37.892L24.8736 40.0572L24.8289 42.2223L25.1191 42.3339C25.5546 42.5007 26.9839 42.8966 27.6861 43.0482C28.0364 43.1238 28.3487 43.2002 28.378 43.2045C28.4074 43.2088 28.9067 42.3848 29.4718 41.3741L30.4986 39.5214H31.6593H32.82L33.8244 41.3518L34.8289 43.1598L35.1637 43.1152C35.5427 43.0766 37.4666 42.6054 38.0432 42.4009L38.4227 42.2447V40.0795V37.892L38.7128 37.758C38.8745 37.6764 39.3082 37.4353 39.6727 37.2223L40.3423 36.8205L42.1503 37.9143C43.1417 38.51 43.9847 38.9857 44.0477 38.9857C44.2037 38.9857 46.6146 36.5556 46.6146 36.3964C46.6146 36.3265 46.1336 35.4604 45.5432 34.4768L44.4718 32.6911L44.7173 32.2893C44.8521 32.0696 45.0894 31.6245 45.253 31.3072L45.5432 30.7268L47.7084 30.7714L49.8736 30.8161L50.0521 30.2804C50.2509 29.7046 50.6676 28.1017 50.7664 27.5348L50.8334 27.1777L48.9584 26.1509L47.1057 25.1241V24.008V22.8697L48.9584 21.8429C49.9825 21.279 50.8339 20.7817 50.8334 20.7268C50.8312 20.4844 50.3339 18.4928 50.1191 17.8697L49.8736 17.1777L47.7084 17.2223L45.5432 17.267L45.253 16.6866C45.0893 16.3692 44.8521 15.9242 44.7173 15.7045L44.4718 15.3027L45.5655 13.45L46.6816 11.5973L45.9003 10.7491C45.0508 9.81961 44.1043 8.97815 43.9807 9.03037C43.9384 9.04824 43.443 9.30962 42.8869 9.63304L41.8825 10.2357L40.4316 12.3786L38.9807 14.5214L39.9182 15.4589C41.8683 17.3931 43.0411 19.6522 43.4227 22.2447C43.6012 23.4576 43.6049 24.1097 43.4673 25.325C42.877 30.5392 38.9784 34.7183 33.7798 35.7045C32.7479 35.9002 30.6323 35.8952 29.5387 35.7045C26.1213 35.1085 22.9736 32.858 21.2575 29.7893C19.6591 26.9311 19.3282 23.3588 20.3646 20.2357C21.3678 17.213 23.5613 14.7111 26.4584 13.3161C27.3873 12.8688 28.9762 12.3339 29.3825 12.3339C29.6306 12.3339 29.6785 12.1742 30.1414 10.2357L30.5432 8.58394L29.4941 6.68662L28.445 4.81162ZM8.0432 31.3072L7.68605 32.4232L7.32891 33.5393L6.68159 33.8072L6.03427 34.075L5.00748 33.6063C4.44361 33.3403 3.9583 33.1152 3.91373 33.1152C3.86919 33.1152 3.54827 33.4096 3.19945 33.7625L2.55212 34.3875L3.06552 35.392C3.35018 35.9419 3.58034 36.4498 3.57891 36.508C3.57725 36.5663 3.48372 36.863 3.3557 37.1777L3.11016 37.758L1.99409 38.1598L0.878017 38.5616L0.855695 39.4991L0.833374 40.4143L1.97177 40.7938L3.08784 41.1509L3.28873 41.6197C3.63827 42.4057 3.62874 42.4816 3.08784 43.5839L2.59677 44.6107L3.24409 45.2804L3.91373 45.9277L5.00748 45.392L6.07891 44.8563L6.72623 45.1464L7.35123 45.4366L7.7307 46.5304L8.11016 47.6241H9.06998H10.0075L10.3423 46.508L10.6994 45.4143L11.3244 45.1464L11.9718 44.8563L13.0878 45.3697L14.1816 45.883L14.8289 45.2357L15.4762 44.5884L14.9628 43.517L14.4271 42.4455L14.6503 41.8429C14.7728 41.5154 14.9237 41.2198 14.9852 41.1732C15.0466 41.1266 15.5645 40.9087 16.1459 40.7045L17.2173 40.3473L17.195 39.4098L17.1503 38.4723L16.0566 38.1152L14.9405 37.758L14.695 37.1777C14.5654 36.8586 14.4718 36.5518 14.4718 36.4857C14.4718 36.4196 14.6766 35.9125 14.9405 35.3473L15.4316 34.3205L14.7619 33.6509L14.0923 32.9813L13.0432 33.5393L12.0164 34.075L11.3691 33.8072L10.7218 33.5616L10.32 32.4232L9.89587 31.3072H8.9807H8.0432ZM9.02534 36.9098C11.4054 36.9111 12.5093 39.787 10.7441 41.3741C10.4831 41.6088 10.0874 41.8458 9.87355 41.9098C8.46263 42.3326 6.96518 41.5888 6.56998 40.258C6.3676 39.5765 6.37647 39.1981 6.61462 38.5616C7.00022 37.531 7.9248 36.9092 9.02534 36.9098Z" fill="#5E9C46"/>
<path d="M34.3825 2.37858C34.2626 2.37394 34.1818 2.37441 34.1593 2.4009C34.1244 2.44189 33.5969 4.05874 32.9986 5.97233C32.4002 7.88591 30.919 12.6187 29.695 16.508C28.471 20.3974 27.4968 23.6541 27.5298 23.7402C27.5818 23.8757 27.843 23.8964 29.4048 23.8964C30.8723 23.8964 31.2272 23.9356 31.3244 24.0527C31.4219 24.1701 31.1491 24.9096 29.8512 28.0482C28.9757 30.1656 28.1655 32.078 28.0655 32.3116C27.9656 32.5452 27.9443 32.7315 27.9986 32.7134C28.1704 32.6561 38.9584 20.3517 38.9584 20.2134C38.9584 20.1064 38.5206 20.0795 36.6593 20.0795C35.2203 20.0795 34.3538 20.0521 34.3155 19.9902C34.2819 19.9358 34.5915 19.28 35.0075 18.5393C35.4234 17.7986 36.4203 15.9992 37.2396 14.5438C40.7674 8.27714 42.4134 5.36455 42.4628 5.23572C42.5209 5.08449 40.9462 4.23748 39.5834 3.69554C38.1867 3.14015 35.2217 2.41105 34.3825 2.37858ZM28.445 4.81162L28.0878 4.85626C27.6743 4.92024 25.5278 5.50254 25.1191 5.65983L24.8289 5.77144L24.8736 7.93662L24.8959 10.1018L24.6057 10.258C24.4463 10.3382 24.0126 10.5795 23.6459 10.7938L22.9762 11.1732L21.1905 10.1241C20.2096 9.54524 19.3798 9.05272 19.3378 9.03037C19.2277 8.97182 18.0326 10.0469 17.2843 10.883L16.6369 11.5973L17.753 13.45L18.8691 15.3027L18.6236 15.7045C18.4888 15.9242 18.2292 16.3693 18.0655 16.6866L17.7753 17.267L15.6325 17.2223L13.4673 17.1777L13.2664 17.6688C13.0854 18.1429 12.6758 19.7581 12.5521 20.4589L12.4852 20.8161L14.3602 21.8429L16.2352 22.8697V24.008V25.1241L14.3602 26.1509L12.4852 27.1777L12.5521 27.5348C12.6535 28.109 13.0691 29.7087 13.2664 30.2804L13.445 30.8161L15.6102 30.7714L17.7753 30.7268L18.0655 31.3072C18.2292 31.6245 18.4888 32.0696 18.6236 32.2893L18.8691 32.6911L17.753 34.5438L16.6369 36.3964L17.4182 37.2447C18.1257 38.0188 19.1716 38.9857 19.2932 38.9857C19.3191 38.9857 20.1649 38.5095 21.1682 37.9143L22.9986 36.8205L23.6459 37.2223C24.0096 37.4348 24.4463 37.6779 24.6057 37.758L24.8959 37.892L24.8736 40.0572L24.8289 42.2223L25.1191 42.3339C25.5546 42.5007 26.9839 42.8966 27.6861 43.0482C28.0364 43.1238 28.3487 43.2002 28.378 43.2045C28.4074 43.2088 28.9067 42.3848 29.4718 41.3741L30.4986 39.5214H31.6593H32.82L33.8244 41.3518L34.8289 43.1598L35.1637 43.1152C35.5427 43.0766 37.4666 42.6054 38.0432 42.4009L38.4227 42.2447V40.0795V37.892L38.7128 37.758C38.8745 37.6764 39.3082 37.4353 39.6727 37.2223L40.3423 36.8205L42.1503 37.9143C43.1417 38.51 43.9847 38.9857 44.0477 38.9857C44.2037 38.9857 46.6146 36.5556 46.6146 36.3964C46.6146 36.3265 46.1336 35.4604 45.5432 34.4768L44.4718 32.6911L44.7173 32.2893C44.8521 32.0696 45.0894 31.6245 45.253 31.3072L45.5432 30.7268L47.7084 30.7714L49.8736 30.8161L50.0521 30.2804C50.2509 29.7046 50.6676 28.1017 50.7664 27.5348L50.8334 27.1777L48.9584 26.1509L47.1057 25.1241V24.008V22.8697L48.9584 21.8429C49.9825 21.279 50.8339 20.7817 50.8334 20.7268C50.8312 20.4844 50.3339 18.4928 50.1191 17.8697L49.8736 17.1777L47.7084 17.2223L45.5432 17.267L45.253 16.6866C45.0893 16.3692 44.8521 15.9242 44.7173 15.7045L44.4718 15.3027L45.5655 13.45L46.6816 11.5973L45.9003 10.7491C45.0508 9.81961 44.1043 8.97815 43.9807 9.03037C43.9384 9.04824 43.443 9.30962 42.8869 9.63304L41.8825 10.2357L40.4316 12.3786L38.9807 14.5214L39.9182 15.4589C41.8683 17.3931 43.0411 19.6522 43.4227 22.2447C43.6012 23.4576 43.6049 24.1097 43.4673 25.325C42.877 30.5392 38.9784 34.7183 33.7798 35.7045C32.7479 35.9002 30.6323 35.8952 29.5387 35.7045C26.1213 35.1085 22.9736 32.858 21.2575 29.7893C19.6591 26.9311 19.3282 23.3588 20.3646 20.2357C21.3678 17.213 23.5613 14.7111 26.4584 13.3161C27.3873 12.8688 28.9762 12.3339 29.3825 12.3339C29.6306 12.3339 29.6785 12.1742 30.1414 10.2357L30.5432 8.58394L29.4941 6.68662L28.445 4.81162ZM8.0432 31.3072L7.68605 32.4232L7.32891 33.5393L6.68159 33.8072L6.03427 34.075L5.00748 33.6063C4.44361 33.3403 3.9583 33.1152 3.91373 33.1152C3.86919 33.1152 3.54827 33.4096 3.19945 33.7625L2.55212 34.3875L3.06552 35.392C3.35018 35.9419 3.58034 36.4498 3.57891 36.508C3.57725 36.5663 3.48372 36.863 3.3557 37.1777L3.11016 37.758L1.99409 38.1598L0.878017 38.5616L0.855695 39.4991L0.833374 40.4143L1.97177 40.7938L3.08784 41.1509L3.28873 41.6197C3.63827 42.4057 3.62874 42.4816 3.08784 43.5839L2.59677 44.6107L3.24409 45.2804L3.91373 45.9277L5.00748 45.392L6.07891 44.8563L6.72623 45.1464L7.35123 45.4366L7.7307 46.5304L8.11016 47.6241H9.06998H10.0075L10.3423 46.508L10.6994 45.4143L11.3244 45.1464L11.9718 44.8563L13.0878 45.3697L14.1816 45.883L14.8289 45.2357L15.4762 44.5884L14.9628 43.517L14.4271 42.4455L14.6503 41.8429C14.7728 41.5154 14.9237 41.2198 14.9852 41.1732C15.0466 41.1266 15.5645 40.9087 16.1459 40.7045L17.2173 40.3473L17.195 39.4098L17.1503 38.4723L16.0566 38.1152L14.9405 37.758L14.695 37.1777C14.5654 36.8586 14.4718 36.5518 14.4718 36.4857C14.4718 36.4196 14.6766 35.9125 14.9405 35.3473L15.4316 34.3205L14.7619 33.6509L14.0923 32.9813L13.0432 33.5393L12.0164 34.075L11.3691 33.8072L10.7218 33.5616L10.32 32.4232L9.89587 31.3072H8.9807H8.0432ZM9.02534 36.9098C11.4054 36.9111 12.5093 39.787 10.7441 41.3741C10.4831 41.6088 10.0874 41.8458 9.87355 41.9098C8.46263 42.3326 6.96518 41.5888 6.56998 40.258C6.3676 39.5765 6.37647 39.1981 6.61462 38.5616C7.00022 37.531 7.9248 36.9092 9.02534 36.9098Z" fill="#00BCF2"/>
</g>
</g>
<defs>
<clipPath id="clip0_81_1985">
<rect width="50" height="50" fill="white" transform="translate(0.833374)"/>
</clipPath>
</defs>
</svg>
