<svg width="51" height="50" viewBox="0 0 51 50" fill="none" xmlns="http://www.w3.org/2000/svg">
<g id="growth-money-svgrepo-com 1" clip-path="url(#clip0_81_1968)">
<g id="Group">
<path id="Vector" d="M25.1667 34.4718C24.6896 34.4718 24.304 34.0861 24.304 33.6091C24.304 28.3769 28.5613 24.1196 33.7934 24.1196C34.2705 24.1196 34.6561 24.5053 34.6561 24.9823C34.6561 30.2144 30.3988 34.4718 25.1667 34.4718Z" fill="#178443"/>
<path id="Vector_2" d="M25.1666 34.4719C24.9458 34.4719 24.7249 34.3873 24.5567 34.2192C24.2194 33.8818 24.2194 33.3366 24.5567 32.9993L28.0074 29.5487C28.3448 29.2113 28.89 29.2113 29.2272 29.5487C29.5646 29.886 29.5646 30.4312 29.2272 30.7685L25.7765 34.2192C25.6083 34.3872 25.3875 34.4719 25.1666 34.4719Z" fill="#24AE5F"/>
<path id="Vector_3" d="M25.1667 34.4718C19.9346 34.4718 15.6772 30.2145 15.6772 24.9823C15.6772 24.5053 16.0629 24.1196 16.54 24.1196C21.7721 24.1196 26.0294 28.3769 26.0294 33.6091C26.0294 34.0861 25.6438 34.4718 25.1667 34.4718Z" fill="#178443"/>
<g id="Group_2">
<path id="Vector_4" d="M25.1666 34.4718C24.9458 34.4718 24.7258 34.3873 24.5576 34.2199L21.0957 30.7692C20.7592 30.4328 20.7583 29.8876 21.0939 29.5494C21.4304 29.2113 21.9765 29.2121 22.3137 29.5477L25.7756 32.9983C26.113 33.3348 26.1138 33.88 25.7774 34.2182C25.6092 34.3872 25.3884 34.4718 25.1666 34.4718Z" fill="#24AE5F"/>
<path id="Vector_5" d="M25.1666 38.7851C24.6895 38.7851 24.3039 38.3995 24.3039 37.9224V22.4296C24.3039 21.9525 24.6895 21.5669 25.1666 21.5669C25.6437 21.5669 26.0293 21.9525 26.0293 22.4296V37.9225C26.0293 38.3996 25.6437 38.7851 25.1666 38.7851Z" fill="#24AE5F"/>
</g>
<path id="Vector_6" d="M36.3815 11.2149C36.3815 17.4089 31.3607 22.4297 25.1666 22.4297C18.9726 22.4297 13.9518 17.4089 13.9518 11.2149C13.9518 5.02084 18.9726 0 25.1666 0C31.3607 0 36.3815 5.02084 36.3815 11.2149Z" fill="#13A085"/>
<g id="Group_3">
<path id="Vector_7" d="M25.1667 18.2116C22.7882 18.2116 20.8533 16.2766 20.8533 13.8982C20.8533 13.4211 21.2389 13.0354 21.716 13.0354C22.1931 13.0354 22.5787 13.4211 22.5787 13.8982C22.5787 15.325 23.7399 16.4862 25.1668 16.4862C25.9302 16.4862 26.6505 16.1515 27.1432 15.5692C27.3649 15.3069 27.4659 14.9687 27.4296 14.6159C27.3899 14.2373 27.195 13.8844 26.893 13.6497L22.3812 10.1412C21.71 9.61837 21.2752 8.8351 21.1881 7.99056C21.1027 7.16585 21.3451 6.36871 21.873 5.74591C22.6943 4.77452 23.8952 4.21729 25.1668 4.21729C27.5452 4.21729 29.4802 6.15225 29.4802 8.53069C29.4802 9.00778 29.0945 9.39341 28.6175 9.39341C28.1404 9.39341 27.7547 9.00778 27.7547 8.53069C27.7547 7.1038 26.5936 5.94263 25.1667 5.94263C24.4032 5.94263 23.6829 6.27734 23.1903 6.86056C22.9685 7.12286 22.8676 7.46011 22.9038 7.81299C22.9435 8.19256 23.1385 8.54456 23.4405 8.7792L27.9522 12.2886C28.6234 12.8106 29.0582 13.5938 29.1454 14.4384C29.2308 15.2631 28.9883 16.0602 28.4604 16.6839C27.6391 17.6542 26.4383 18.2116 25.1667 18.2116Z" fill="white"/>
<path id="Vector_8" d="M25.1667 19.8416C24.6896 19.8416 24.304 19.456 24.304 18.9789V3.45073C24.304 2.97364 24.6896 2.58801 25.1667 2.58801C25.6438 2.58801 26.0294 2.97364 26.0294 3.45073V18.979C26.0294 19.4561 25.6438 19.8416 25.1667 19.8416Z" fill="white"/>
</g>
<path id="Vector_9" d="M32.0681 50H18.2652L15.6772 41.3732H34.6561L32.0681 50Z" fill="#CB8252"/>
<path id="Vector_10" d="M13.9518 41.3732H36.3815V37.9225H13.9518V41.3732Z" fill="#805333"/>
</g>
</g>
<defs>
<clipPath id="clip0_81_1968">
<rect width="50" height="50" fill="white" transform="translate(0.166626)"/>
</clipPath>
</defs>
</svg>
