<svg width="184" height="148" viewBox="0 0 184 148" fill="none" xmlns="http://www.w3.org/2000/svg">
<g id="Sprinkle 1" opacity="0.3">
<path id="Sprinkle" d="M164.949 29.9673C165.086 28.2288 165.445 28.2443 165.667 28.1748C167.006 27.8213 168.406 27.7658 169.769 28.0125C170.357 28.0897 171.296 28.082 171.533 28.0975C171.586 28.0975 171.632 28.1825 171.663 28.1748C172.011 28.1479 172.361 28.1479 172.709 28.1748C172.77 27.7498 172.801 27.3248 172.854 26.8922C173.022 25.6945 173.137 24.4891 173.381 23.2915C173.427 23.052 172.893 22.7584 174.145 22.627H174.199C174.634 22.594 175.07 22.594 175.505 22.627C177.476 22.6889 178.094 22.8357 177.796 23.1293C177.728 23.1988 177.796 23.2761 177.858 23.3534C177.963 23.5467 178.011 23.7667 177.995 23.9869C177.995 24.1956 177.667 24.3887 177.69 24.5819C177.896 25.3744 178.034 26.1836 178.102 27.0003C177.996 27.7243 177.812 28.4343 177.552 29.1174C177.949 29.1638 178.316 29.187 178.744 29.2411C180.18 29.4188 181.616 29.5579 183.052 29.8206C183.342 29.8669 183.678 29.3338 183.861 30.5932C183.861 30.5932 183.861 30.6396 183.861 30.6473C183.899 31.0869 183.899 31.5289 183.861 31.9685C183.861 33.9697 183.678 34.5878 183.311 34.2865C183.235 34.217 183.136 34.2866 183.044 34.3484C182.803 34.4505 182.541 34.4928 182.28 34.4719C182.028 34.4719 181.791 34.1398 181.562 34.1552C180.614 34.3592 179.651 34.4884 178.683 34.5415C178.08 34.482 177.486 34.3577 176.91 34.1707C176.881 34.7746 176.73 35.3661 176.467 35.9092C176.093 36.62 176.467 37.4081 176.544 38.1653C176.544 38.4821 175.52 38.5902 173.725 38.4434C171.93 38.2966 172.022 37.9953 171.953 37.8099C171.587 36.6994 171.515 35.5109 171.747 34.3638C171.77 34.0295 171.773 33.694 171.755 33.3593C170.517 33.1894 169.257 33.2975 168.05 32.7489C167.187 32.3549 166.255 32.7026 165.354 32.7489C164.964 32.8571 164.811 31.814 164.949 29.9673Z" fill="#5E9C46"/>
<path id="Sprinkle_2" d="M159.204 64.6137C159.303 62.8674 159.563 62.8752 159.731 62.7979C160.663 62.395 161.69 62.2769 162.687 62.458C162.752 62.3574 162.808 62.2514 162.855 62.1412C163.021 61.3806 163.091 60.6016 163.061 59.8232C163.13 58.556 163.153 57.2888 163.298 56.0217C163.298 55.7667 162.771 55.504 163.97 55.249H164.024C164.454 55.1912 164.888 55.1679 165.322 55.1795C167.301 55.0713 167.927 55.1795 167.614 55.504C167.545 55.5813 167.614 55.6585 167.698 55.7358C167.815 55.932 167.878 56.156 167.881 56.3849C167.881 56.6012 167.583 56.833 167.622 57.0262C167.89 57.8399 168.092 58.6746 168.225 59.5218C168.12 60.4912 167.96 61.4535 167.744 62.4039C167.744 62.6666 167.744 62.9293 167.698 63.1765C168.236 63.2925 168.783 63.3623 169.333 63.3852C170.394 63.5088 171.456 63.5938 172.51 63.787C172.732 63.8333 172.976 63.2848 173.114 64.5056C173.117 64.5234 173.117 64.5418 173.114 64.5596C173.144 64.9969 173.144 65.4358 173.114 65.8731C173.114 67.8743 172.984 68.5002 172.709 68.1911C172.655 68.1216 172.586 68.1912 172.518 68.2607C172.353 68.3712 172.158 68.4253 171.96 68.4152C171.777 68.4152 171.601 68.0984 171.433 68.1293C170.739 68.3615 170.026 68.5296 169.302 68.6316C168.689 68.5548 168.088 68.399 167.515 68.168C167.47 68.4105 167.403 68.6484 167.316 68.8788C166.995 69.6515 167.408 70.4241 167.568 71.1968C167.629 71.5213 166.583 71.7222 164.788 71.7222C162.993 71.7222 163.046 71.4054 162.962 71.2122C162.512 70.0811 162.346 68.8544 162.481 67.6425V67.5808C162.128 67.5367 161.786 67.4266 161.473 67.2562C160.839 66.9008 160.151 67.2563 159.479 67.4031C159.219 67.4958 159.105 66.4294 159.204 64.6137Z" fill="#5E9C46"/>
<path id="Sprinkle_3" d="M135.366 44.6859C135.572 42.9551 135.931 42.986 136.13 42.9319C137.488 42.6267 138.896 42.6267 140.255 42.9319C140.835 43.0246 141.782 43.0555 142.019 43.0787C142.073 43.0787 142.118 43.1714 142.149 43.1714C142.527 43.1627 142.906 43.1887 143.279 43.2487C143.447 42.1438 143.585 41.0311 143.829 39.934C143.883 39.6944 143.356 39.3931 144.593 39.285H144.647C145.08 39.2737 145.514 39.2943 145.945 39.3467C147.916 39.4472 148.535 39.5939 148.237 39.8876C148.168 39.9571 148.237 40.0344 148.298 40.1194C148.396 40.315 148.438 40.5344 148.42 40.7529C148.42 40.9616 148.084 41.147 148.099 41.3402C148.297 42.1356 148.422 42.9477 148.473 43.7663C148.456 43.9991 148.415 44.2295 148.351 44.454L149.207 44.5777C150.635 44.8172 152.079 45.0104 153.507 45.3503C153.797 45.4199 154.156 44.8945 154.271 46.123C154.271 46.123 154.271 46.1693 154.271 46.1771C154.287 46.6187 154.264 47.0609 154.202 47.4984C154.095 49.4918 153.912 50.1099 153.561 49.77C153.484 49.6927 153.385 49.77 153.293 49.8164C153.05 49.9107 152.788 49.9426 152.529 49.9091C152.285 49.9091 152.056 49.5536 151.827 49.5691C150.864 49.7273 149.892 49.8177 148.916 49.8395C148.362 49.7615 147.817 49.6269 147.29 49.4378C147.099 50.4963 147.221 51.5858 146.663 52.6057C146.274 53.3088 146.61 54.1046 146.663 54.8695C146.663 55.1786 145.632 55.2713 143.845 55.0859C142.057 54.9004 142.149 54.6068 142.08 54.4214C141.736 53.305 141.686 52.1173 141.935 50.9754C142.011 50.4886 142.004 49.7159 142.019 49.4995C142.019 49.4532 142.111 49.4223 142.103 49.3914C142.069 49.0703 142.069 48.7465 142.103 48.4255C140.827 48.1783 139.514 48.2555 138.284 47.6529C137.436 47.2279 136.489 47.5293 135.572 47.5834C135.267 47.5756 135.152 46.4939 135.366 44.6859Z" fill="#5E9C46"/>
<path id="Sprinkle_4" d="M136.511 8.41016C136.633 6.66394 136.901 6.67942 137.069 6.60216C138.039 6.21389 139.1 6.1147 140.124 6.31627C140.249 6.32468 140.374 6.32468 140.498 6.31627C140.498 5.99175 140.544 5.66724 140.575 5.35044C140.735 3.93647 140.842 2.52251 141.071 1.11626C141.117 0.830376 140.582 0.505857 141.835 0.343598H141.889C142.323 0.308644 142.76 0.308644 143.195 0.343598C145.173 0.343598 145.792 0.498157 145.486 0.853583C145.417 0.930849 145.486 1.02354 145.555 1.11626C145.666 1.35755 145.713 1.62369 145.692 1.88893C145.692 2.12845 145.364 2.37573 145.387 2.59208C145.602 3.51982 145.747 4.46246 145.822 5.41222C145.771 6.02669 145.65 6.63331 145.463 7.22032C145.929 7.32077 146.403 7.32847 146.869 7.39029C147.946 7.52937 149.03 7.62205 150.1 7.8384C150.321 7.8384 150.581 7.33621 150.711 8.55702C150.707 8.57485 150.707 8.59323 150.711 8.61106C150.74 9.04841 150.74 9.4873 150.711 9.92465C150.711 11.9258 150.55 12.5517 150.275 12.2426C150.222 12.1731 150.146 12.2426 150.077 12.3122C149.909 12.4205 149.711 12.4719 149.512 12.4589C149.328 12.4589 149.145 12.1421 148.977 12.1653C148.27 12.3914 147.544 12.5493 146.808 12.6367C146.133 12.5399 145.471 12.3635 144.837 12.1113C144.677 13.3552 144.837 14.6146 144.287 15.8354C143.913 16.6854 144.287 17.5894 144.371 18.478C144.417 18.8411 143.355 19.0112 141.56 18.8953C139.765 18.7794 139.849 18.4317 139.78 18.2153C139.407 16.9079 139.326 15.5327 139.544 14.1897C139.605 13.6179 139.582 12.7139 139.597 12.4666C139.597 12.4126 139.681 12.3663 139.673 12.3276C139.65 12.0499 139.65 11.7708 139.673 11.4931C139.39 11.4354 139.117 11.3338 138.864 11.1918C138.215 10.8287 137.512 11.1918 136.832 11.3154C136.496 11.2922 136.389 10.2259 136.511 8.41016Z" fill="#5E9C46"/>
<path id="Sprinkle_5" d="M105.744 28.1206C106.073 26.3976 106.325 26.444 106.508 26.3821C107.478 26.1059 108.508 26.1302 109.464 26.4518C109.869 26.5522 110.534 26.5985 110.717 26.6294C110.717 26.6294 110.77 26.7144 110.801 26.7144C111.144 26.7156 111.486 26.7623 111.817 26.8535C111.901 26.5135 111.947 26.1736 112.031 25.8413C112.26 24.86 112.451 23.871 112.794 22.9052C112.856 22.712 112.344 22.4107 113.558 22.4261H113.612C114.045 22.4606 114.476 22.5173 114.903 22.5961C116.858 22.8588 117.462 23.0443 117.125 23.2529C117.057 23.2993 117.125 23.3765 117.179 23.4461C117.266 23.6119 117.298 23.8013 117.271 23.9869C117.271 24.1569 116.919 24.2882 116.934 24.4427C117.089 25.1175 117.179 25.8058 117.202 26.4981C117.021 27.1569 116.764 27.7922 116.438 28.391C117.202 28.5842 117.966 28.762 118.73 29.017C118.928 29.0865 119.241 28.5765 119.218 29.7896V29.8437C119.183 30.2796 119.121 30.7131 119.035 31.1418C118.745 33.1198 118.554 33.7302 118.34 33.3825C118.286 33.3053 118.21 33.3825 118.141 33.4288C117.97 33.5184 117.774 33.5482 117.584 33.5138C117.408 33.5138 117.278 33.1507 117.118 33.1584C116.499 33.1584 115.85 33.4134 115.246 33.3903L115.078 33.6607C114.658 34.2093 114.964 34.9046 115.017 35.5459C115.017 35.8086 113.978 35.7855 112.206 35.4687C110.434 35.1519 110.534 34.9201 110.48 34.7579C110.189 33.8382 110.189 32.8496 110.48 31.9299L110.35 31.8912C109.449 31.6208 108.494 31.6904 107.662 31.0568C107.096 30.6164 106.386 30.91 105.729 30.9486C105.378 30.9795 105.408 29.9055 105.744 28.1206Z" fill="#5E9C46"/>
<path id="Sprinkle_6" d="M113.702 63.8558C114.727 63.3803 115.859 63.1934 116.979 63.315C117.453 63.315 118.186 63.2455 118.4 63.2378C118.4 63.2378 118.484 63.315 118.515 63.3073C119.144 63.2103 119.783 63.1947 120.417 63.2609C120.417 61.986 120.348 60.7111 120.417 59.3976C120.417 59.1039 119.859 58.849 121.043 58.5013H121.089C121.517 58.412 121.951 58.3577 122.387 58.339C124.35 58.0995 124.977 58.1691 124.679 58.5631C124.618 58.6558 124.679 58.7408 124.77 58.8181C124.904 59.0347 124.983 59.2817 125 59.5367C125 59.7762 124.74 60.0621 124.786 60.3093C125.108 61.2135 125.363 62.1407 125.55 63.0832C125.565 63.3405 125.565 63.5985 125.55 63.8558C126.268 63.8558 126.986 63.91 127.704 63.9872C127.94 63.9872 128.17 63.4541 128.414 64.6594C128.414 64.6594 128.414 64.6594 128.414 64.7135C128.477 65.1483 128.505 65.5876 128.498 66.0271C128.62 68.0205 128.544 68.6541 128.231 68.3451C128.162 68.2832 128.093 68.3451 128.017 68.4378C127.841 68.5534 127.638 68.62 127.429 68.6309C127.23 68.6309 127.008 68.3373 126.833 68.3759C126.336 68.4841 125.847 68.7081 125.351 68.8627C125.351 69.1795 125.351 69.4963 125.351 69.8131C125.351 71.1035 125.649 72.3784 125.267 73.6765C125 74.5805 125.466 75.4381 125.679 76.3189C125.771 76.6743 124.732 76.9757 122.937 77.0916C121.142 77.2075 121.188 76.8443 121.089 76.6357C120.555 75.3758 120.307 74.0107 120.363 72.641C120.363 72.0615 120.218 71.1575 120.195 70.9025C120.195 70.8562 120.271 70.8021 120.264 70.7635C120.136 70.0291 120.083 69.2836 120.103 68.5382C119.752 68.5382 119.401 68.5382 119.057 68.5382C118.003 68.4532 116.956 68.7082 115.902 68.2601C115.184 67.9433 114.466 68.376 113.748 68.546C113.45 68.6155 113.244 67.5569 113.221 65.7412C113.198 63.9254 113.496 63.9408 113.702 63.8558Z" fill="#5E9C46"/>
<path id="Sprinkle_7" d="M86.5642 53.1548C87.3281 51.6095 87.5726 51.6867 87.7559 51.6712C88.8043 51.6592 89.8441 51.8643 90.8112 52.2739C91.2342 52.3917 91.6658 52.4744 92.102 52.5212C92.102 52.5212 92.1632 52.614 92.1938 52.614C92.6052 52.624 93.0146 52.6757 93.4159 52.7685C93.5763 51.5708 93.6985 50.3654 93.9276 49.1755C93.9811 48.9206 93.4464 48.6193 94.6915 48.4725H94.7449C95.1772 48.4395 95.6112 48.4395 96.0435 48.4725C98.0218 48.5266 98.6405 48.6733 98.335 48.9824C98.2662 49.0519 98.335 49.137 98.3961 49.2142C98.5002 49.4162 98.5453 49.644 98.5259 49.871C98.5259 50.0873 98.1975 50.2882 98.2204 50.4891C98.4276 51.3103 98.5656 52.1478 98.6329 52.9926C98.6181 53.138 98.5951 53.2824 98.5641 53.4252C99.3279 53.3711 100.092 53.2784 100.856 53.1935C101.085 53.1935 101.154 52.5676 101.681 53.688V53.7343C101.848 54.1409 101.986 54.5592 102.093 54.986C102.735 56.879 102.857 57.5126 102.383 57.304C102.284 57.2576 102.223 57.3581 102.162 57.4431C101.986 57.6203 101.763 57.7412 101.52 57.7908C101.299 57.868 100.985 57.5976 100.756 57.6748C99.9383 58.1207 99.0649 58.4534 98.1593 58.6639C97.9533 58.6793 97.7465 58.6793 97.5406 58.6639C97.5406 58.7102 97.5406 58.7566 97.5406 58.803C97.3496 59.9234 97.5406 61.0669 96.9524 62.1563C96.5781 62.929 96.9524 63.7017 97.0211 64.4743C97.0211 64.7988 95.9976 64.9147 94.2026 64.7679C92.4076 64.6211 92.4993 64.3121 92.4305 64.1189C92.0661 62.968 91.9977 61.742 92.2319 60.5569C92.293 60.0469 92.2777 59.2511 92.293 59.0115C92.293 58.9652 92.3771 58.9266 92.3771 58.8957C92.3428 58.554 92.3428 58.2097 92.3771 57.868C92.1708 57.868 91.9646 57.7908 91.766 57.7367C90.5897 57.4277 89.3217 57.3581 88.3135 56.5236C87.6336 55.9595 86.717 56.0522 85.8768 55.8359C85.5255 55.8359 85.7699 54.7851 86.5642 53.1548Z" fill="#5E9C46"/>
<path id="Sprinkle_8" d="M44.691 118.993C45.2028 117.325 45.5847 117.448 45.8291 117.448C47.3093 117.413 48.7858 117.612 50.2058 118.035C50.8169 118.174 51.8023 118.267 52.0773 118.298C52.1307 118.298 52.1765 118.391 52.2147 118.391C52.5751 118.403 52.9345 118.434 53.2917 118.484C53.3376 118.082 53.3605 117.711 53.4063 117.278C53.5744 115.887 53.6966 114.497 53.9334 113.114C53.9792 112.835 53.4521 112.511 54.6972 112.341H54.7507C55.1828 112.306 55.617 112.306 56.0492 112.341C58.0275 112.341 58.6462 112.519 58.3407 112.866C58.272 112.944 58.3407 113.036 58.4018 113.129C58.505 113.356 58.5523 113.606 58.5393 113.855C58.5393 114.087 58.2108 114.327 58.2261 114.543C58.4356 115.458 58.576 116.388 58.6462 117.325C58.5657 118.043 58.4095 118.75 58.1803 119.434C58.7302 119.473 59.2802 119.473 59.8301 119.488C61.396 119.534 62.9619 119.488 64.543 119.419C64.8715 119.419 65.1083 118.816 65.5742 119.975V120.029C65.7072 120.449 65.7968 120.881 65.8416 121.319C66.254 123.282 66.2235 123.923 65.7193 123.684C65.6124 123.63 65.5207 123.73 65.4214 123.807C65.16 123.964 64.8682 124.062 64.5659 124.093C64.2757 124.147 63.932 123.854 63.6723 123.915C62.5781 124.278 61.453 124.537 60.3114 124.688C59.3664 124.674 58.426 124.552 57.5081 124.325C57.5248 125.419 57.3489 126.507 56.9887 127.539C56.6144 128.366 56.9887 129.27 57.0575 130.143C57.0957 130.506 56.0339 130.653 54.2389 130.522C52.4439 130.39 52.5356 130.05 52.4668 129.842C52.0992 128.554 52.0287 127.198 52.2606 125.878C52.3217 125.314 52.3064 124.425 52.3217 124.17C52.3217 124.116 52.4057 124.078 52.4057 124.039C52.4057 124 52.4057 123.784 52.4057 123.66H52.2453C50.7176 123.351 49.19 123.313 47.7463 122.509C46.7992 121.953 45.6687 122.092 44.5993 121.937C44.1181 121.829 44.1563 120.732 44.691 118.993Z" fill="#5E9C46"/>
<path id="Sprinkle_9" d="M21.1263 139.021C21.7603 137.399 22.0353 137.476 22.2186 137.476C23.32 137.4 24.4259 137.531 25.4802 137.862C25.9364 137.949 26.3987 137.998 26.8627 138.009C26.9009 138.009 26.9315 138.094 26.962 138.094C27.6178 138.086 28.2735 138.119 28.9251 138.195C28.9251 137.94 28.9251 137.685 28.9251 137.422C29.0167 136.309 29.0702 135.204 29.2382 134.099C29.2382 133.875 28.7188 133.636 29.9257 133.45H29.9792C30.4115 133.422 30.8453 133.422 31.2777 133.45C33.256 133.45 33.8747 133.512 33.5692 133.798C33.5005 133.86 33.5692 133.929 33.6456 133.999C33.7589 134.167 33.8176 134.367 33.8136 134.571C33.8136 134.764 33.5081 134.957 33.5463 135.127C33.7989 135.839 33.9855 136.574 34.1039 137.321C34.0883 137.646 34.0345 137.968 33.9435 138.279C34.6386 138.148 35.3336 137.994 36.0287 137.831C36.2732 137.769 36.2808 137.167 36.9377 138.21L36.9759 138.256C37.1869 138.642 37.3707 139.042 37.5259 139.454C38.3737 141.262 38.5112 141.888 38.0376 141.772C37.9383 141.772 37.8848 141.849 37.8237 141.942C37.6558 142.141 37.4362 142.288 37.1898 142.367C36.9683 142.467 36.6169 142.243 36.4259 142.367C35.6113 142.912 34.7274 143.344 33.7984 143.649C33.65 143.682 33.4993 143.703 33.3477 143.711C33.3781 144.337 33.2629 144.962 33.0116 145.535C32.6755 146.207 33.0727 146.91 33.2178 147.598C33.2789 147.884 32.2248 148.038 30.4222 147.992C28.6195 147.945 28.6959 147.667 28.6119 147.505C28.1843 146.52 28.0439 145.431 28.2071 144.368C28.2223 144.082 28.2223 143.796 28.2071 143.51C27.8029 143.502 27.3997 143.465 27.0002 143.402C25.7399 143.194 24.4032 143.224 23.2574 142.46C22.4936 141.942 21.5388 142.096 20.6451 141.934C20.3014 141.78 20.4618 140.713 21.1263 139.021Z" fill="#5E9C46"/>
<path id="Sprinkle_10" d="M0.908272 116.497C0.992292 114.751 1.39713 114.767 1.63392 114.689C3.13032 114.302 4.68687 114.213 6.21693 114.427C6.87383 114.481 7.89733 114.427 8.18759 114.427C8.2487 114.427 8.30218 114.504 8.34037 114.504C8.74462 114.473 9.15063 114.473 9.55488 114.504C9.61599 114.249 9.73054 113.994 9.81456 113.731C9.69999 113.415 9.99023 113.16 10.0895 112.874C10.3782 111.836 10.57 110.772 10.6624 109.698C10.9374 107.96 11.1589 106.221 11.5027 104.498C11.5714 104.143 11.0673 103.725 12.2665 103.532H12.32C12.756 103.502 13.1939 103.521 13.6261 103.586C15.6044 103.671 16.2079 103.872 15.8565 104.297C15.7801 104.398 15.8565 104.513 15.9024 104.622C15.9915 104.919 16.0175 105.233 15.9787 105.541C15.9787 105.835 15.6197 106.121 15.6197 106.391C15.76 107.55 15.8289 108.716 15.8259 109.884C15.6884 111.213 15.1385 112.48 14.8864 113.793C14.7871 114.303 14.7184 114.821 14.6573 115.338C15.1614 115.338 15.6732 115.4 16.185 115.447C17.7967 115.593 19.4084 115.694 21.0124 115.918C21.3409 115.918 21.6998 115.416 21.9519 116.644C21.9519 116.644 21.9519 116.683 21.9519 116.698C21.9958 117.135 21.9958 117.575 21.9519 118.012C21.9977 120.013 21.845 120.639 21.4325 120.33C21.3408 120.26 21.2339 120.33 21.1346 120.399C20.8704 120.507 20.5867 120.557 20.302 120.546C20.027 120.546 19.7444 120.222 19.4923 120.245C18.4372 120.471 17.3678 120.624 16.2919 120.701C15.5016 120.64 14.7189 120.503 13.9545 120.291C13.8754 121.108 13.6825 121.909 13.3817 122.671C12.9386 123.699 13.2213 124.835 13.2518 125.932C13.2518 126.388 12.1901 126.55 10.4104 126.333C8.63064 126.117 8.72993 125.7 8.67646 125.43C8.40829 123.784 8.43935 122.103 8.76811 120.469C8.76811 120.253 8.82921 120.005 8.85212 119.75H8.73758C7.28629 119.573 5.82736 119.75 4.39136 119.21C3.42129 118.839 2.39011 119.21 1.38185 119.318C1.03812 119.387 0.824249 118.352 0.908272 116.497Z" fill="#5E9C46"/>
</g>
</svg>
